<svg width="512" height="512" viewBox="0 0 512 512" fill="none" xmlns="http://www.w3.org/2000/svg">
<g clip-path="url(#clip0_18_7645)">
<path d="M3 456L3 216C3 202.745 13.745 192 27 192H107C120.255 192 131 202.745 131 216L131 456C131 469.255 120.255 480 107 480H27C13.745 480 3 469.255 3 456ZM315 0C294.817 0 285.515 39.293 281.069 57.795C275.863 79.461 270.48 101.865 255.676 116.697C223.207 149.221 206.173 190.664 166.559 229.808C165.432 230.922 164.537 232.249 163.926 233.712C163.315 235.175 163.001 236.744 163.001 238.329L163.001 452.099C163.001 458.64 168.244 463.977 174.784 464.097C190.615 464.387 211.478 473.176 227.435 480.275C259.189 494.402 298.709 511.983 346.995 512H349.839C392.616 512 443.202 511.587 463.613 482.263C472.005 470.206 474.059 455.229 469.761 437.631C486.073 420.578 494.824 388.768 486.143 362.874C503.687 339.442 505.286 306.742 495.451 283.405L495.561 283.295C507.454 271.346 515.084 252.036 515 234.098C514.844 203.746 488.843 176 455.447 176H353.723C361.03 147.66 387 123.868 387 81.452C387 7.99999 339 0 315 0Z" fill="#11980F"/>
</g>
<defs>
<clipPath id="clip0_18_7645">
<rect width="512" height="512" fill="white"/>
</clipPath>
</defs>
</svg>
