<svg width="512" height="512" viewBox="0 0 512 512" fill="none" xmlns="http://www.w3.org/2000/svg">
<g clip-path="url(#clip0_18_7645)">
<path d="M3 56V296C3 309.255 13.745 320 27 320H107C120.255 320 131 309.255 131 296V56C131 42.745 120.255 32 107 32H27C13.745 32 3 42.745 3 56ZM315 512C294.817 512 285.515 472.707 281.069 454.205C275.863 432.539 270.48 410.135 255.676 395.303C223.207 362.779 206.173 321.336 166.559 282.192C165.432 281.078 164.537 279.751 163.926 278.288C163.315 276.825 163.001 275.256 163.001 273.671V59.901C163.001 53.36 168.244 48.023 174.784 47.903C190.615 47.613 211.478 38.824 227.435 31.725C259.189 17.598 298.709 0.017 346.995 0H349.839C392.616 0 443.202 0.413 463.613 29.737C472.005 41.794 474.059 56.771 469.761 74.369C486.073 91.422 494.824 123.232 486.143 149.126C503.687 172.558 505.286 205.258 495.451 228.595L495.561 228.705C507.454 240.654 515.084 259.964 515 277.902C514.844 308.254 488.843 336 455.447 336H353.723C361.03 364.34 387 388.132 387 430.548C387 504 339 512 315 512Z" fill="#F20F0F"/>
</g>
<defs>
<clipPath id="clip0_18_7645">
<rect width="512" height="512" fill="white"/>
</clipPath>
</defs>
</svg>
